<svg width="49" height="49" viewBox="0 0 49 49" fill="none" xmlns="http://www.w3.org/2000/svg">
<path d="M42.6716 5.48623L41.7572 4.57183C39.776 2.59064 36.4232 2.59064 34.442 4.57183L32.6132 6.40062C29.4128 4.87663 25.7553 4.26703 21.9453 4.72423C12.9537 5.79103 5.79093 12.9538 4.72413 21.9454C3.35254 33.9849 12.6489 44.1957 24.3837 44.1957C27.7364 44.1957 30.9368 43.4337 33.68 41.9097L37.0328 45.2625C37.1852 45.4149 37.3376 45.5673 37.49 45.5673H37.6424H37.7948C37.9472 45.5673 37.9472 45.5673 38.0996 45.5673C38.252 45.5673 38.252 45.5673 38.4044 45.5673H38.5568H38.7092C38.8616 45.5673 39.014 45.4149 39.1664 45.2625C39.3188 45.1101 39.4712 44.9577 39.4712 44.8053V44.6529V44.5005V44.3481V37.1853C42.3668 33.6801 44.0432 29.2605 44.0432 24.5362C44.0432 20.7262 42.9764 17.3734 41.1476 14.3254L42.6716 12.8014C44.6528 10.8202 44.6528 7.46742 42.6716 5.48623ZM39.6236 25.9077H41.1476C40.6904 30.9369 37.9472 35.3565 33.9848 38.0997C33.3752 38.5569 32.7656 38.8617 32.156 39.1665C30.3272 40.0809 28.1936 40.8429 26.0601 40.9953V39.4713C26.0601 38.7093 25.2981 37.9473 24.5361 37.9473C23.7741 37.9473 23.0121 38.7093 23.0121 39.4713V40.9953C14.9349 40.2333 8.53412 33.8325 7.77212 25.7554H9.29611C10.0581 25.7554 10.8201 24.9934 10.8201 24.2314C10.8201 23.4694 10.0581 22.7074 9.29611 22.7074H7.61972C8.38172 14.7826 14.7825 8.38182 22.8597 7.61982V9.14381C22.8597 9.90581 23.6217 10.6678 24.3837 10.6678C25.1457 10.6678 25.9076 9.90581 25.9076 9.14381V7.61982C33.9848 8.38182 40.3856 14.7826 41.1476 22.8598H39.6236C38.8616 22.8598 38.0996 23.6218 38.0996 24.3838C38.0996 25.1458 38.8616 25.9077 39.6236 25.9077Z" fill="#FCC822"/>
<path d="M24.3839 10.6678V4.57183C21.4884 4.57183 18.5928 5.18143 16.1544 6.40062L14.3256 4.57183C12.3444 2.59064 8.9916 2.59064 7.01041 4.57183L6.09602 5.48623C4.11482 7.46742 4.11482 10.8202 6.09602 12.8014L7.46761 14.173C5.63882 17.221 4.57202 20.5738 4.57202 24.3838C4.57202 29.1081 6.24841 33.5277 9.144 37.0329V44.1957C9.144 44.3481 9.144 44.5005 9.144 44.6529V44.8053C9.144 44.8053 9.144 44.8053 9.144 44.9577C9.144 45.1101 9.2964 45.2625 9.4488 45.4149C9.6012 45.5673 9.7536 45.5673 9.906 45.7197C9.906 45.7197 9.906 45.7197 10.0584 45.7197H10.2108C10.3632 45.7197 10.5156 45.7197 10.668 45.7197C10.8204 45.7197 10.9728 45.7197 11.1252 45.7197H11.2776C11.2776 45.7197 11.2776 45.7197 11.43 45.7197C11.5824 45.7197 11.7348 45.5673 11.8872 45.4149L15.24 42.0621C17.9832 43.5861 21.1836 44.3481 24.5363 44.3481V38.2521C23.7743 38.2521 23.0123 39.0141 23.0123 39.7761V41.3001C20.7264 41.1477 18.7452 40.5381 16.9164 39.4713C16.3068 39.1665 15.6972 38.7093 15.0876 38.4045C11.1252 35.6613 8.38201 31.2417 7.92481 26.2125H9.4488C10.2108 26.2125 10.9728 25.4506 10.9728 24.6886C10.9728 23.9266 10.2108 23.1646 9.4488 23.1646H7.62001C8.38201 14.7826 14.7828 8.38182 22.8599 7.61982V9.14381C22.8599 9.90581 23.6219 10.6678 24.3839 10.6678Z" fill="#FCC822"/>
</svg>
